<svg width="32" height="32" viewBox="0 0 32 32" fill="none" xmlns="http://www.w3.org/2000/svg">
<rect x="0.5" width="31" height="32" rx="15.5" fill="white"/>
<g clip-path="url(#clip0_130_240)">
<path fill-rule="evenodd" clip-rule="evenodd" d="M16.0001 23C16.2542 23 16.498 23.1054 16.6777 23.2929C16.8574 23.4804 16.9584 23.7348 16.9584 24V25C16.9584 25.2652 16.8574 25.5196 16.6777 25.7071C16.498 25.8946 16.2542 26 16.0001 26C15.7459 26 15.5021 25.8946 15.3224 25.7071C15.1427 25.5196 15.0417 25.2652 15.0417 25V24C15.0417 23.7348 15.1427 23.4804 15.3224 23.2929C15.5021 23.1054 15.7459 23 16.0001 23ZM20.7438 20.95C20.9088 20.7778 21.1284 20.6744 21.3613 20.6591C21.5942 20.6438 21.8244 20.7177 22.0088 20.867L22.0989 20.95L22.7764 21.657C22.9483 21.837 23.0481 22.0784 23.0555 22.3324C23.063 22.5863 22.9775 22.8337 22.8164 23.0243C22.6554 23.2148 22.4309 23.3343 22.1885 23.3584C21.9461 23.3825 21.704 23.3094 21.5114 23.154L21.4213 23.071L20.7438 22.364C20.5641 22.1765 20.4632 21.9222 20.4632 21.657C20.4632 21.3918 20.5641 21.1375 20.7438 20.95ZM11.2563 20.95C11.436 21.1375 11.5369 21.3918 11.5369 21.657C11.5369 21.9222 11.436 22.1765 11.2563 22.364L10.5788 23.071C10.398 23.2532 10.1559 23.354 9.90467 23.3517C9.6534 23.3494 9.41303 23.2442 9.23535 23.0588C9.05767 22.8734 8.95688 22.6226 8.9547 22.3604C8.95252 22.0982 9.04911 21.8456 9.22368 21.657L9.90122 20.95C10.0809 20.7625 10.3246 20.6572 10.5788 20.6572C10.8329 20.6572 11.0766 20.7625 11.2563 20.95ZM16.0001 6C16.2348 6.00003 16.4613 6.08996 16.6367 6.25272C16.8122 6.41547 16.9242 6.63975 16.9517 6.883L16.9584 7V8.1L24.7928 16.276C25.3764 16.884 25.0065 17.906 24.2178 17.994L24.1085 18H20.6959C20.4778 19.1105 19.9046 20.1108 19.0704 20.8369C18.2361 21.563 17.1902 21.9719 16.1041 21.9965C15.018 22.0211 13.9561 21.6601 13.0924 20.9725C12.2287 20.2849 11.6144 19.3116 11.3502 18.212L11.3042 18H7.89159C7.06647 18 6.63618 17.004 7.13355 16.361L7.20734 16.276L15.0417 8.1V7C15.0417 6.73478 15.1427 6.48043 15.3224 6.29289C15.5021 6.10536 15.7459 6 16.0001 6ZM18.7121 18H13.288C13.4812 18.5703 13.835 19.0663 14.3031 19.4231C14.7712 19.7799 15.3317 19.9808 15.9111 19.9994C16.4905 20.018 17.0617 19.8534 17.5499 19.5273C18.0382 19.2012 18.4205 18.7288 18.647 18.172L18.7121 18ZM21.8181 16L16.0671 9.998L16.0001 10L15.9349 9.998L10.183 16H21.8181Z" fill="#586AF6"/>
</g>
<defs>
<clipPath id="clip0_130_240">
<rect width="23" height="24" fill="white" transform="translate(4.5 4)"/>
</clipPath>
</defs>
</svg>
