<svg width="375" height="109" viewBox="0 0 375 109" fill="none" xmlns="http://www.w3.org/2000/svg">
<path d="M383.65 -2.51999H383.64C383.64 -2.58999 383.65 -2.65999 383.65 -2.72999C383.65 -12.28 375.91 -20.03 366.35 -20.03C365.12 -20.03 363.92 -19.9 362.77 -19.65C359.34 -27.99 351.15 -33.87 341.57 -33.87C334.38 -33.87 327.97 -30.55 323.77 -25.37C320.982 -26.788 317.898 -27.528 314.77 -27.53C304.42 -27.53 295.92 -19.65 294.93 -9.56C283.68 -8.96 274.65 0.260006 274.5 11.71C274.34 23.63 283.89 33.43 295.81 33.58C296.74 33.59 297.64 33.53 298.54 33.42C303.15 43.14 313.04 49.86 324.51 49.86C331.43 49.86 337.77 47.41 342.73 43.34C346.52 46.15 351.2 47.83 356.28 47.83C366.7 47.83 375.47 40.84 378.2 31.29C379.92 31.86 381.75 32.18 383.66 32.18C393.24 32.18 401.01 24.41 401.01 14.83C401 5.25001 393.24 -2.51999 383.65 -2.51999Z" fill="#E3EBEE"/>
<path d="M393.85 0.789978C397.78 4.75998 395 13.86 392.3 16.83C386.98 22.66 377.22 21.3 373.3 20.46C372.24 20.23 372.07 20.31 371.72 20.52C371.41 20.71 371.27 21.01 370.93 21.72C369.67 24.44 366.41 29.71 359.53 31.83C352.36 34.04 345.6 30.67 342.44 28.66C341.24 27.9 341.19 27.88 340.65 27.89C340.1 27.9 339.56 28.3 338.91 28.81C336.05 31.06 329.52 35.03 319.45 34.45C309.58 33.88 303.93 27.8 301.99 24.67C301.62 24.07 301.22 23.57 300.76 23.52C300.23 23.47 299.64 24.01 299.2 24.45C295 28.54 281.78 29.77 277.4 22.8C281.86 29.95 288.75 33.49 295.82 33.58C296.75 33.59 297.65 33.53 298.55 33.42C303.16 43.14 313.05 49.86 324.52 49.86C331.44 49.86 337.78 47.41 342.74 43.34C346.53 46.15 351.21 47.83 356.29 47.83C366.71 47.83 375.48 40.84 378.21 31.29C379.93 31.86 381.76 32.18 383.67 32.18C393.25 32.18 401.02 24.41 401.02 14.83C401 9.72998 398.44 3.96998 393.85 0.789978Z" fill="#B9CDD2"/>
<path d="M-19.55 43.3C-18.83 42.58 -20.82 34.01 -11.95 27.39C-3.08002 20.77 2.96999 24.72 3.81998 24.43C4.65998 24.15 8.60999 6.83001 25.22 2.33001C41.83 -2.16999 59.15 6.27001 63.23 20.35C66.96 33.22 64.07 41.89 64.5 42.45C64.92 43.01 72.95 42.73 77.59 50.19C82.23 57.65 80.55 62.3 80.55 62.3L50.99 71.45H3.68998C3.68998 71.45 -37.98 60.47 -38.4 58.5C-38.82 56.53 -37.87 50.13 -31.08 46.25C-25.18 42.88 -20.82 44.57 -19.55 43.3Z" fill="#E4EAEE"/>
<path d="M-7.84001 73.84C-7.84001 73.84 -23.62 77.14 -34.29 68.88C-40.71 63.9 -38.37 55.83 -38.37 55.83C-38.37 55.83 -33.77 60.48 -24.48 61.74C-15.19 63.01 -4.77001 62.58 -4.77001 62.58C-4.77001 62.58 -2.17001 67.02 7.61999 69.06C19.89 71.61 26.36 65.33 26.36 65.33C26.36 65.33 29.72 69.35 41.55 69.63C53.38 69.91 60.01 61.65 61.12 61.46C61.68 61.37 64.94 64.33 71.4 63.29C77.55 62.3 80.79 59.63 80.79 59.63C80.79 59.63 81.68 66.25 75.49 70.33C70.66 73.51 62.26 73.85 62.26 73.85C62.26 73.85 60.98 78.76 55.21 82.33C49.85 85.66 40.61 86.77 33.77 84.73C25.18 82.17 23.05 78.26 23.05 78.26C23.05 78.26 16.65 82.01 6.64999 80.74C-2.80001 79.56 -7.84001 73.84 -7.84001 73.84Z" fill="#BACDD2"/>
</svg>
