<svg width="33" height="32" viewBox="0 0 33 32" fill="none" xmlns="http://www.w3.org/2000/svg">
<rect x="0.333344" width="32" height="32" rx="16" fill="white"/>
<path d="M21.9403 14.4948L16.9686 6.57775C16.8965 6.47651 16.8012 6.39398 16.6907 6.33703C16.5802 6.28008 16.4577 6.25037 16.3333 6.25037C16.209 6.25037 16.0865 6.28008 15.976 6.33703C15.8655 6.39398 15.7702 6.47651 15.6981 6.57775L10.7038 14.5323C10.01 15.6515 9.62352 16.9338 9.58334 18.25C9.58334 20.0402 10.2945 21.7571 11.5604 23.023C12.8262 24.2888 14.5431 25 16.3333 25C18.1236 25 19.8404 24.2888 21.1063 23.023C22.3722 21.7571 23.0833 20.0402 23.0833 18.25C23.0402 16.9194 22.6459 15.6238 21.9403 14.4948ZM16.3333 23.5C14.9415 23.4982 13.6072 22.9445 12.623 21.9603C11.6388 20.9762 11.0851 19.6418 11.0833 18.25C11.1232 17.2012 11.4382 16.1813 11.9968 15.2928L12.6981 14.1753L20.2536 21.7308C19.7629 22.2867 19.1596 22.732 18.4837 23.0372C17.8079 23.3423 17.0749 23.4996 16.3333 23.5Z" fill="#6CABCE"/>
</svg>
