<svg width="33" height="32" viewBox="0 0 33 32" fill="none" xmlns="http://www.w3.org/2000/svg">
<rect x="0.5" width="32" height="32" rx="16" fill="white"/>
<path d="M16.5 7H10.5V16C9.66047 16.6296 9.04033 17.5075 8.72743 18.5092C8.41453 19.5108 8.42473 20.5856 8.75658 21.5811C9.08844 22.5767 9.72512 23.4426 10.5764 24.0562C11.4278 24.6698 12.4506 25 13.5 25C14.5494 25 15.5722 24.6698 16.4236 24.0562C17.2749 23.4426 17.9116 22.5767 18.2434 21.5811C18.5753 20.5856 18.5855 19.5108 18.2726 18.5092C17.9597 17.5075 17.3395 16.6296 16.5 16V7ZM16.5 7H18.5M16.5 10H18.5M16.5 13H18.5M23.5 11C24.0304 11 24.5391 10.7893 24.9142 10.4142C25.2893 10.0391 25.5 9.53043 25.5 9C25.5 8.46957 25.2893 7.96086 24.9142 7.58579C24.5391 7.21071 24.0304 7 23.5 7C22.9696 7 22.4609 7.21071 22.0858 7.58579C21.7107 7.96086 21.5 8.46957 21.5 9C21.5 9.53043 21.7107 10.0391 22.0858 10.4142C22.4609 10.7893 22.9696 11 23.5 11Z" stroke="#586AF6" stroke-width="1.5" stroke-linecap="round" stroke-linejoin="round"/>
<path d="M13.5 18C12.9696 18 12.4609 18.2107 12.0858 18.5858C11.7107 18.9609 11.5 19.4696 11.5 20C11.5 20.5304 11.7107 21.0391 12.0858 21.4142C12.4609 21.7893 12.9696 22 13.5 22C14.0304 22 14.5391 21.7893 14.9142 21.4142C15.2893 21.0391 15.5 20.5304 15.5 20C15.5 19.4696 15.2893 18.9609 14.9142 18.5858C14.5391 18.2107 14.0304 18 13.5 18ZM13.5 18V10" stroke="#586AF6" stroke-width="1.5" stroke-linecap="round" stroke-linejoin="round"/>
</svg>
